<svg data-v-423bf9ae="" xmlns="http://www.w3.org/2000/svg" viewBox="0 0 291.86437442288246 187" class="iconAboveSlogan"><!----><!----><!----><g data-v-423bf9ae="" id="e2fbae74-a38b-40ef-ae2c-bc9fde9b28fd" fill="white" transform="matrix(5.352363487191075,0,0,5.352363487191075,-3.9072260556328047,60.288140700638465)"><path d="M8.75 8.85Q8.96 9.28 8.96 9.93L8.96 9.93Q8.96 10.65 8.48 11.07Q7.99 11.49 7.14 11.49L7.14 11.49Q6.64 11.49 5.95 11.40L5.95 11.40Q5.74 12.57 5.73 12.64L5.73 12.64Q5.40 14.42 5.24 15.49Q5.07 16.56 5.07 16.97L5.07 16.97Q5.07 18.10 5.46 18.66L5.46 18.66Q4.72 19.19 3.98 19.19L3.98 19.19Q3.21 19.19 2.88 18.77Q2.55 18.35 2.55 17.44L2.55 17.44Q2.55 16.77 2.76 15.36Q2.97 13.94 3.47 11.00L3.47 11.00L3.11 10.99L0.92 11.47Q0.73 11.00 0.73 10.39L0.73 10.39Q0.73 9.62 1.21 9.22Q1.69 8.82 2.55 8.82L2.55 8.82Q3.01 8.82 3.45 8.88Q3.89 8.95 4.59 9.07L4.59 9.07Q5.08 9.16 5.61 9.23Q6.13 9.31 6.58 9.32L6.58 9.32L8.75 8.85ZM10.93 19.18Q10.22 19.18 9.89 18.80Q9.56 18.42 9.56 17.67L9.56 17.67Q9.56 17.14 9.88 15.43Q10.19 13.72 10.58 12.14L10.58 12.14L9.88 11.19Q10.86 10.44 11.66 10.44L11.66 10.44Q12.17 10.44 12.41 10.70Q12.66 10.95 12.66 11.40L12.66 11.40Q12.66 11.84 12.53 12.31Q12.40 12.77 12.17 13.37L12.17 13.37L12.31 13.44Q12.89 11.91 13.50 11.17Q14.11 10.43 14.98 10.43L14.98 10.43Q15.55 10.43 15.88 10.74Q16.20 11.05 16.20 11.59L16.20 11.59Q16.20 12.22 15.77 12.62Q15.34 13.02 14.59 13.02L14.59 13.02Q13.90 13.02 13.30 13.64Q12.70 14.27 12.33 15.32Q11.97 16.37 11.97 17.54L11.97 17.54Q11.97 18.26 12.22 18.61L12.22 18.61Q11.61 19.18 10.93 19.18L10.93 19.18ZM24.28 12.45Q24.28 13.41 23.62 14.11Q22.96 14.81 21.71 15.19Q20.47 15.57 18.75 15.58L18.75 15.58L18.75 15.76Q18.75 16.79 19.11 17.36Q19.47 17.93 20.12 17.93L20.12 17.93Q20.90 17.93 21.41 17.39Q21.91 16.84 21.95 15.95L21.95 15.95Q22.68 15.95 23.07 16.22Q23.45 16.49 23.45 17.01L23.45 17.01Q23.45 17.60 22.97 18.10Q22.50 18.59 21.68 18.89Q20.86 19.18 19.87 19.18L19.87 19.18Q18.23 19.18 17.30 18.26Q16.38 17.33 16.38 15.71L16.38 15.71Q16.38 14.21 17.07 13.01Q17.77 11.80 18.98 11.12Q20.20 10.43 21.71 10.43L21.71 10.43Q22.93 10.43 23.60 10.96Q24.28 11.49 24.28 12.45L24.28 12.45ZM21.34 11.77Q20.50 11.77 19.80 12.59Q19.11 13.40 18.86 14.63L18.86 14.63Q20.45 14.56 21.33 14.04Q22.20 13.51 22.20 12.61L22.20 12.61Q22.20 12.24 21.97 12.01Q21.73 11.77 21.34 11.77L21.34 11.77ZM27.19 19.18Q26.47 19.18 26.14 18.82Q25.82 18.45 25.82 17.74L25.82 17.74Q25.82 17.16 26.14 15.42Q26.46 13.68 26.82 12.14L26.82 12.14L26.14 11.19Q26.66 10.85 27.24 10.65Q27.82 10.44 28.35 10.44L28.35 10.44Q28.87 10.44 29.11 10.68Q29.34 10.92 29.34 11.40L29.34 11.40Q29.34 11.76 29.25 12.17Q29.15 12.59 28.98 12.92L28.98 12.92L29.12 12.99Q30.58 10.43 32.87 10.43L32.87 10.43Q33.75 10.43 34.18 10.86Q34.61 11.30 34.61 12.19L34.61 12.19Q34.61 12.70 34.51 13.23Q34.41 13.76 34.19 14.69L34.19 14.69Q33.96 15.60 33.84 16.25Q33.71 16.91 33.71 17.54L33.71 17.54Q33.71 18.26 33.96 18.61L33.96 18.61Q33.35 19.18 32.68 19.18L32.68 19.18Q31.96 19.18 31.64 18.82Q31.32 18.45 31.32 17.74L31.32 17.74Q31.32 17.18 31.44 16.58Q31.56 15.97 31.79 15.02L31.79 15.02Q31.99 14.25 32.08 13.82Q32.17 13.38 32.17 13.03L32.17 13.03Q32.17 12.24 31.54 12.24L31.54 12.24Q30.84 12.24 30.06 12.98Q29.27 13.72 28.75 14.95Q28.22 16.17 28.22 17.54L28.22 17.54Q28.22 18.26 28.48 18.61L28.48 18.61Q27.83 19.18 27.19 19.18L27.19 19.18ZM45.40 8.89Q45.40 9.18 45.30 9.74Q45.19 10.29 45.11 10.69Q45.02 11.09 44.98 11.26L44.98 11.26Q44.58 13.02 44.33 14.48Q44.09 15.93 44.09 17.35L44.09 17.35Q44.09 17.84 44.18 18.12Q44.27 18.40 44.46 18.61L44.46 18.61Q44.16 18.89 43.76 19.03Q43.37 19.18 42.99 19.18L42.99 19.18Q42.32 19.18 42.01 18.77Q41.69 18.37 41.69 17.51L41.69 17.51L41.71 17.12L41.57 17.07Q41.12 18.06 40.37 18.62Q39.62 19.18 38.72 19.18L38.72 19.18Q37.95 19.18 37.37 18.77Q36.78 18.37 36.46 17.62Q36.13 16.87 36.13 15.89L36.13 15.89Q36.13 14.42 36.84 13.26Q37.55 12.10 38.80 11.44Q40.05 10.78 41.64 10.78L41.64 10.78Q42.22 10.78 42.69 10.86L42.69 10.86L42.88 9.80L42.17 8.83Q42.69 8.46 43.28 8.22Q43.88 7.98 44.39 7.98L44.39 7.98Q44.94 7.98 45.17 8.19Q45.40 8.40 45.40 8.89L45.40 8.89ZM41.96 15.25Q42.13 14.08 42.52 11.87L42.52 11.87Q41.36 11.96 40.44 12.46Q39.52 12.96 39.01 13.77Q38.50 14.57 38.50 15.54L38.50 15.54Q38.50 16.32 38.83 16.76Q39.16 17.19 39.75 17.19L39.75 17.19Q40.39 17.19 40.99 16.66Q41.59 16.13 41.96 15.23L41.96 15.23L41.96 15.25ZM50.36 19.18Q49.25 19.18 48.43 18.73Q47.60 18.27 47.15 17.44Q46.70 16.60 46.70 15.50L46.70 15.50Q46.70 14.03 47.36 12.87Q48.02 11.72 49.20 11.07Q50.37 10.43 51.86 10.43L51.86 10.43Q52.39 10.43 52.89 10.54L52.89 10.54Q53.05 10.98 53.03 11.51L53.03 11.51Q51.81 11.51 50.92 12.04Q50.02 12.57 49.55 13.49Q49.07 14.41 49.07 15.55L49.07 15.55Q49.07 16.74 49.50 17.34Q49.92 17.93 50.69 17.93L50.69 17.93Q51.67 17.93 52.33 17.14Q52.99 16.35 53.14 14.99L53.14 14.99Q52.07 14.36 52.07 13.19L52.07 13.19Q52.07 12.46 52.51 11.96Q52.95 11.47 53.59 11.47L53.59 11.47Q54.35 11.47 54.80 12.08Q55.26 12.70 55.26 13.73L55.26 13.73Q55.26 15.23 54.61 16.49Q53.96 17.74 52.83 18.46Q51.70 19.18 50.36 19.18L50.36 19.18Z"></path></g><!----><g data-v-423bf9ae="" id="020346cb-9979-4836-8f12-417c1807dda1" transform="matrix(2.8125,0,0,2.8125,101,0)" stroke="none" fill="white"><path d="M16 32c8.837 0 16-7.163 16-16S24.837 0 16 0 0 7.163 0 16s7.163 16 16 16zM14.817 6.421h2v8.886h8.887v2H14.817V6.421zm-5.959.437h2v14.283h14.283v2H8.858V6.858z"></path></g><!----><g data-v-423bf9ae="" id="65257c61-bbed-460b-8629-1dd1992fabb0" fill="white" transform="matrix(0.9221428777256343,0,0,0.9221428777256343,36.605359576083,199.91114556428582)"><path d="M7.81 9.52C7.39 9.11 6.79 8.86 6.01 8.75C6.33 8.67 6.61 8.55 6.86 8.40C7.11 8.25 7.34 8.08 7.50 7.87C7.67 7.66 7.81 7.43 7.90 7.20C7.98 6.96 8.04 6.71 8.04 6.44C8.04 6.05 7.95 5.68 7.83 5.38C7.70 5.07 7.49 4.80 7.22 4.58C6.96 4.37 6.62 4.20 6.20 4.09C5.78 3.98 5.29 3.92 4.73 3.92L1.89 3.92L0.70 3.92L0.70 4.19C0.70 4.34 0.80 4.42 0.98 4.44L1.12 4.44C1.19 4.44 1.29 4.45 1.43 4.45C1.57 4.45 1.72 4.47 1.89 4.47L1.89 13.26C1.72 13.26 1.57 13.27 1.43 13.27C1.29 13.27 1.19 13.29 1.12 13.29L0.98 13.29C0.80 13.30 0.71 13.38 0.71 13.54L0.71 13.82L1.89 13.82L5.10 13.82C5.63 13.82 6.09 13.76 6.51 13.64C6.93 13.51 7.28 13.34 7.56 13.10C7.84 12.87 8.06 12.59 8.22 12.25C8.37 11.91 8.44 11.54 8.44 11.12C8.44 10.46 8.23 9.93 7.81 9.52ZM2.60 4.48L4.73 4.48C5.61 4.48 6.27 4.66 6.69 5.00C7.11 5.35 7.32 5.84 7.32 6.51C7.32 6.76 7.28 7.03 7.18 7.27C7.08 7.50 6.93 7.71 6.72 7.91C6.51 8.11 6.24 8.26 5.92 8.37C5.60 8.48 5.21 8.55 4.75 8.55L2.60 8.55ZM7.06 12.68C6.61 13.06 5.95 13.24 5.08 13.24L2.60 13.24L2.60 9.07L5.10 9.07C5.52 9.07 5.88 9.11 6.20 9.21C6.52 9.31 6.80 9.45 7.03 9.62C7.25 9.80 7.42 10.00 7.55 10.25C7.66 10.50 7.73 10.79 7.73 11.10C7.73 11.79 7.50 12.31 7.06 12.68ZM23.44 13.29L23.37 13.29L23.25 13.29C23.21 13.29 23.14 13.27 23.04 13.27C22.95 13.27 22.83 13.26 22.71 13.26L22.71 6.85L22.04 6.86L21.03 6.86L21.03 7.13C21.03 7.28 21.13 7.36 21.31 7.38L21.38 7.38C21.41 7.38 21.45 7.39 21.49 7.39L21.70 7.39C21.80 7.39 21.91 7.41 22.04 7.41L22.04 12.08C21.73 12.49 21.36 12.81 20.97 13.05C20.58 13.27 20.16 13.40 19.71 13.40C19.10 13.40 18.63 13.20 18.34 12.84C18.05 12.46 17.89 11.96 17.89 11.30L17.89 6.85L17.22 6.86L16.21 6.86L16.21 7.13C16.21 7.28 16.31 7.36 16.49 7.38L16.56 7.38C16.59 7.38 16.63 7.39 16.67 7.39L16.88 7.39C16.98 7.39 17.09 7.41 17.22 7.41L17.22 11.30C17.22 11.70 17.28 12.07 17.37 12.39C17.47 12.71 17.61 12.99 17.81 13.22C18.00 13.44 18.23 13.62 18.52 13.75C18.82 13.87 19.15 13.93 19.54 13.93C20.06 13.93 20.54 13.80 20.96 13.57C21.38 13.33 21.76 13.01 22.08 12.60L22.13 13.64C22.13 13.76 22.22 13.82 22.34 13.82L22.71 13.82L23.72 13.82L23.72 13.54C23.72 13.38 23.62 13.30 23.44 13.29ZM38.51 6.86L38.00 6.86L36.60 6.86L36.60 7.13C36.60 7.28 36.69 7.36 36.88 7.38L36.95 7.38C36.97 7.38 37.00 7.39 37.04 7.39L37.25 7.39C37.35 7.39 37.46 7.41 37.59 7.41L35.45 12.45L35.36 12.66C35.34 12.73 35.32 12.80 35.29 12.87C35.28 12.80 35.24 12.73 35.22 12.66C35.20 12.59 35.18 12.52 35.15 12.45L32.98 7.41C33.14 7.41 33.28 7.39 33.39 7.39C33.50 7.39 33.59 7.38 33.61 7.38L33.70 7.38C33.88 7.36 33.98 7.28 33.98 7.13L33.98 6.86L32.56 6.86L32.56 6.86L32.00 6.86L31.54 6.86L31.54 7.13C31.54 7.28 31.64 7.36 31.82 7.38C31.82 7.38 31.96 7.38 32.24 7.39L34.96 13.57L33.73 16.28L34.20 16.28C34.29 16.28 34.36 16.25 34.40 16.21C34.44 16.17 34.48 16.13 34.51 16.06L38.28 7.39L38.53 7.39C38.61 7.39 38.65 7.38 38.68 7.38L38.75 7.38C38.93 7.36 39.03 7.28 39.03 7.13L39.03 6.86ZM64.60 3.92L64.25 3.92L58.66 3.92L57.47 3.92L57.47 4.19C57.47 4.34 57.57 4.42 57.75 4.44L57.89 4.44C57.96 4.44 58.06 4.45 58.20 4.45C58.34 4.45 58.49 4.47 58.66 4.47L58.66 13.26C58.49 13.26 58.34 13.27 58.20 13.27C58.06 13.27 57.96 13.29 57.89 13.29L57.75 13.29C57.57 13.30 57.47 13.38 57.47 13.54L57.47 13.82L58.66 13.82L59.37 13.82L60.55 13.82L60.55 13.54C60.55 13.38 60.47 13.30 60.28 13.29L60.14 13.29C60.07 13.29 59.98 13.27 59.84 13.27C59.70 13.27 59.54 13.26 59.37 13.26L59.37 9.27L63.07 9.27L63.07 8.67L59.37 8.67L59.37 4.51L63.98 4.51C64.01 5.18 64.04 5.56 64.04 5.63C64.05 5.85 64.15 5.96 64.34 5.96L64.68 5.96L64.68 3.92ZM77.91 13.29L77.81 13.29L77.59 13.29C77.49 13.29 77.38 13.27 77.27 13.27L77.27 9.28C77.27 8.89 77.22 8.55 77.13 8.23C77.03 7.91 76.89 7.64 76.71 7.42C76.52 7.20 76.29 7.03 76.01 6.92C75.73 6.79 75.40 6.73 75.03 6.73C74.52 6.73 74.07 6.83 73.67 7.01C73.26 7.20 72.88 7.48 72.52 7.84L72.63 8.05C72.67 8.13 72.74 8.18 72.84 8.18C72.91 8.18 73.01 8.12 73.11 8.02C73.21 7.92 73.35 7.84 73.51 7.73C73.68 7.62 73.86 7.52 74.10 7.42C74.34 7.32 74.62 7.28 74.96 7.28C75.50 7.28 75.92 7.45 76.20 7.80C76.48 8.15 76.61 8.64 76.61 9.28L76.61 10.01C75.82 10.02 75.15 10.09 74.59 10.21C74.03 10.32 73.57 10.47 73.21 10.65C72.84 10.84 72.59 11.06 72.42 11.31C72.25 11.56 72.17 11.83 72.17 12.12C72.17 12.45 72.23 12.73 72.32 12.95C72.44 13.17 72.58 13.36 72.74 13.50C72.91 13.64 73.12 13.75 73.35 13.82C73.57 13.89 73.79 13.93 74.03 13.93C74.31 13.93 74.58 13.90 74.82 13.85C75.05 13.79 75.26 13.71 75.47 13.61C75.68 13.51 75.88 13.38 76.08 13.23C76.26 13.08 76.44 12.91 76.64 12.73L76.73 13.62C76.76 13.75 76.86 13.82 77.00 13.82L77.01 13.82L77.27 13.82L78.19 13.82L78.19 13.54C78.19 13.38 78.09 13.30 77.91 13.29ZM76.61 12.26C76.44 12.43 76.29 12.60 76.12 12.74C75.95 12.88 75.77 13.01 75.57 13.12C75.38 13.23 75.17 13.30 74.94 13.36C74.72 13.41 74.47 13.44 74.20 13.44C74.02 13.44 73.84 13.43 73.67 13.37C73.50 13.31 73.36 13.24 73.23 13.13C73.11 13.02 73.00 12.88 72.93 12.71C72.84 12.54 72.81 12.35 72.81 12.11C72.81 11.86 72.88 11.63 73.04 11.44C73.19 11.24 73.42 11.09 73.72 10.95C74.03 10.81 74.42 10.70 74.90 10.61C75.38 10.53 75.95 10.47 76.61 10.46ZM91.04 11.06C90.93 10.86 90.79 10.71 90.61 10.57C90.43 10.43 90.22 10.32 89.99 10.23C89.77 10.15 89.52 10.05 89.28 9.98C89.04 9.91 88.80 9.83 88.56 9.76C88.34 9.69 88.13 9.59 87.95 9.49C87.77 9.39 87.63 9.27 87.51 9.13C87.40 8.99 87.35 8.81 87.35 8.58C87.35 8.40 87.37 8.23 87.46 8.08C87.54 7.92 87.65 7.77 87.81 7.64C87.95 7.52 88.13 7.43 88.34 7.36C88.55 7.29 88.77 7.25 89.03 7.25C89.39 7.25 89.75 7.31 90.13 7.43C90.15 7.60 90.16 7.77 90.17 7.92C90.19 8.08 90.19 8.19 90.20 8.27C90.22 8.36 90.22 8.43 90.22 8.44C90.23 8.67 90.33 8.78 90.52 8.78L90.86 8.78L90.86 7.11C90.13 6.86 89.52 6.75 89.01 6.75C88.66 6.75 88.34 6.80 88.06 6.90C87.78 7.00 87.53 7.14 87.33 7.31C87.14 7.48 86.98 7.69 86.87 7.91C86.76 8.13 86.72 8.37 86.72 8.62C86.72 8.92 86.77 9.16 86.88 9.35C87.00 9.55 87.14 9.70 87.32 9.84C87.50 9.98 87.70 10.09 87.93 10.18C88.16 10.26 88.40 10.35 88.65 10.42C88.89 10.49 89.12 10.57 89.36 10.64C89.59 10.71 89.80 10.81 89.98 10.92C90.16 11.03 90.31 11.16 90.43 11.31C90.54 11.47 90.59 11.65 90.59 11.89C90.59 12.10 90.55 12.29 90.48 12.49C90.40 12.68 90.29 12.84 90.13 12.98C89.98 13.12 89.80 13.23 89.57 13.31C89.35 13.40 89.10 13.44 88.80 13.44C88.27 13.44 87.82 13.37 87.44 13.22C87.43 13.03 87.42 12.87 87.40 12.71C87.39 12.56 87.39 12.43 87.37 12.35C87.36 12.26 87.36 12.19 87.36 12.18C87.35 11.96 87.25 11.84 87.05 11.84L86.72 11.84L86.72 13.54C87.39 13.79 88.07 13.93 88.77 13.93C89.17 13.93 89.50 13.87 89.81 13.76C90.12 13.65 90.37 13.50 90.58 13.30C90.79 13.10 90.94 12.89 91.06 12.63C91.17 12.36 91.22 12.08 91.22 11.77C91.22 11.49 91.15 11.26 91.04 11.06ZM101.68 13.93C101.98 13.93 102.26 13.86 102.54 13.75C102.80 13.64 103.03 13.48 103.21 13.29L103.03 12.98C102.98 12.94 102.96 12.92 102.91 12.92C102.89 12.92 102.83 12.94 102.77 12.99C102.72 13.05 102.65 13.09 102.56 13.15C102.48 13.20 102.37 13.26 102.24 13.31C102.12 13.37 101.99 13.38 101.82 13.38C101.68 13.38 101.54 13.36 101.43 13.31C101.32 13.27 101.22 13.20 101.14 13.12C101.05 13.03 100.98 12.92 100.93 12.78C100.87 12.64 100.86 12.49 100.86 12.29L100.86 7.57L103.05 7.57L103.05 7.07L100.86 7.07L100.86 4.41L100.53 4.41C100.48 4.41 100.45 4.44 100.42 4.47C100.39 4.49 100.37 4.54 100.37 4.58L100.20 7.07L99.01 7.15L99.01 7.41C99.01 7.46 99.02 7.49 99.05 7.52C99.08 7.55 99.13 7.57 99.19 7.57L100.18 7.57L100.18 12.33C100.18 12.88 100.31 13.27 100.58 13.54C100.84 13.80 101.21 13.93 101.68 13.93ZM111.75 13.23C111.75 13.41 111.79 13.57 111.90 13.68C112.01 13.79 112.17 13.85 112.34 13.85L112.45 13.85C112.48 13.85 112.50 13.83 112.53 13.82C112.52 13.99 112.48 14.14 112.42 14.29C112.36 14.45 112.29 14.57 112.22 14.70C112.15 14.83 112.08 14.94 112.01 15.02C111.94 15.11 111.87 15.19 111.83 15.23C111.82 15.25 111.80 15.27 111.79 15.30C111.78 15.33 111.76 15.33 111.76 15.36C111.76 15.40 111.78 15.44 111.82 15.48L111.93 15.58C112.08 15.43 112.24 15.29 112.36 15.11C112.49 14.92 112.60 14.74 112.70 14.55C112.80 14.35 112.85 14.15 112.91 13.96C112.97 13.76 112.98 13.58 112.98 13.38C112.98 13.16 112.92 12.98 112.81 12.84C112.70 12.70 112.55 12.63 112.35 12.63C112.17 12.63 112.03 12.70 111.92 12.81C111.80 12.92 111.75 13.06 111.75 13.23ZM137.73 9.91C137.59 9.65 137.40 9.39 137.16 9.21C136.92 9.03 136.67 8.88 136.37 8.75C136.08 8.62 135.76 8.51 135.45 8.41C135.14 8.32 134.83 8.20 134.54 8.11C134.25 7.99 133.98 7.87 133.74 7.71C133.50 7.56 133.32 7.38 133.18 7.15C133.04 6.93 132.96 6.65 132.96 6.31C132.96 6.06 133.01 5.82 133.11 5.59C133.21 5.35 133.35 5.15 133.53 4.97C133.71 4.79 133.94 4.65 134.22 4.55C134.50 4.45 134.81 4.40 135.17 4.40C135.84 4.40 136.46 4.51 137.02 4.75C137.06 5.54 137.09 5.99 137.09 6.06C137.10 6.29 137.19 6.41 137.38 6.41L137.72 6.41L137.72 4.38C136.84 4.00 136.00 3.81 135.17 3.81C134.71 3.81 134.30 3.88 133.94 4.02C133.57 4.16 133.28 4.34 133.04 4.58C132.80 4.82 132.61 5.08 132.48 5.39C132.36 5.70 132.30 6.02 132.30 6.36C132.30 6.78 132.37 7.14 132.51 7.42C132.65 7.70 132.85 7.92 133.08 8.12C133.32 8.32 133.57 8.46 133.87 8.58C134.16 8.71 134.48 8.82 134.79 8.92C135.10 9.02 135.39 9.11 135.70 9.21C136.00 9.31 136.26 9.45 136.50 9.60C136.74 9.76 136.92 9.94 137.06 10.16C137.20 10.39 137.27 10.68 137.27 11.03C137.27 11.35 137.21 11.66 137.10 11.94C136.99 12.22 136.84 12.46 136.63 12.67C136.42 12.88 136.15 13.05 135.84 13.16C135.53 13.29 135.18 13.33 134.79 13.33C134.01 13.33 133.35 13.20 132.82 12.95C132.80 12.75 132.80 12.54 132.79 12.32C132.78 12.10 132.78 11.91 132.76 11.76C132.75 11.61 132.75 11.52 132.75 11.51C132.73 11.28 132.64 11.17 132.44 11.17L132.10 11.17L132.10 13.02L132.10 13.20L132.10 13.38C132.96 13.75 133.84 13.93 134.76 13.93C135.27 13.93 135.72 13.85 136.11 13.69C136.50 13.54 136.84 13.31 137.10 13.05C137.37 12.78 137.59 12.46 137.73 12.10C137.87 11.73 137.94 11.34 137.94 10.92C137.94 10.51 137.87 10.18 137.73 9.91ZM149.18 6.73C148.69 6.73 148.25 6.83 147.85 7.00C147.46 7.17 147.14 7.41 146.87 7.71C146.61 8.02 146.40 8.39 146.26 8.81C146.12 9.23 146.03 9.69 146.03 10.19C146.03 10.78 146.12 11.31 146.27 11.77C146.43 12.24 146.64 12.61 146.92 12.94C147.20 13.26 147.53 13.50 147.92 13.66C148.32 13.83 148.75 13.90 149.23 13.90C149.49 13.90 149.76 13.89 150.01 13.83C150.26 13.78 150.51 13.71 150.74 13.62C150.96 13.54 151.17 13.44 151.35 13.31C151.54 13.19 151.69 13.06 151.80 12.92L151.62 12.70C151.59 12.66 151.54 12.63 151.48 12.63C151.44 12.63 151.35 12.66 151.26 12.74C151.16 12.82 151.02 12.91 150.84 13.01C150.67 13.10 150.44 13.17 150.19 13.26C149.94 13.34 149.63 13.38 149.28 13.38C148.89 13.38 148.54 13.31 148.22 13.17C147.90 13.03 147.63 12.84 147.41 12.57C147.18 12.31 147.01 11.97 146.89 11.58C146.76 11.19 146.71 10.71 146.71 10.19L146.71 10.07L151.73 10.07C151.80 10.07 151.84 10.05 151.87 10.01C151.90 9.97 151.93 9.90 151.93 9.80C151.93 9.31 151.86 8.88 151.72 8.50C151.58 8.12 151.40 7.78 151.14 7.53C150.91 7.28 150.61 7.08 150.28 6.94C149.94 6.80 149.58 6.73 149.18 6.73ZM149.20 7.24C149.52 7.24 149.80 7.29 150.07 7.41C150.33 7.52 150.56 7.67 150.74 7.88C150.92 8.09 151.07 8.33 151.17 8.62C151.27 8.92 151.33 9.25 151.33 9.63L146.73 9.63C146.78 9.27 146.86 8.93 146.99 8.64C147.11 8.34 147.28 8.09 147.49 7.88C147.70 7.67 147.95 7.52 148.23 7.41C148.51 7.29 148.83 7.24 149.20 7.24ZM162.55 13.29L162.48 13.29L162.37 13.29C162.33 13.29 162.26 13.27 162.16 13.27C162.06 13.27 161.95 13.26 161.83 13.26L161.83 3.63L161.15 3.63L160.15 3.63L160.15 3.91C160.15 4.06 160.24 4.14 160.43 4.16L160.50 4.16C160.52 4.16 160.57 4.17 160.61 4.17L160.82 4.17C160.92 4.17 161.03 4.19 161.15 4.19L161.15 13.26C161 13.26 160.86 13.29 160.75 13.29L160.51 13.29L160.43 13.29C160.24 13.30 160.15 13.38 160.15 13.54L160.15 13.82L161.15 13.82L161.83 13.82L162.83 13.82L162.83 13.54C162.83 13.38 162.74 13.30 162.55 13.29ZM173.46 13.29L173.39 13.29L173.28 13.29C173.24 13.29 173.17 13.27 173.07 13.27C172.97 13.27 172.86 13.26 172.73 13.26L172.73 3.63L172.06 3.63L171.05 3.63L171.05 3.91C171.05 4.06 171.15 4.14 171.33 4.16L171.40 4.16C171.43 4.16 171.47 4.17 171.51 4.17L171.72 4.17C171.82 4.17 171.93 4.19 172.06 4.19L172.06 13.26C171.91 13.26 171.77 13.29 171.65 13.29L171.42 13.29L171.33 13.29C171.15 13.30 171.05 13.38 171.05 13.54L171.05 13.82L172.06 13.82L172.73 13.82L173.74 13.82L173.74 13.54C173.74 13.38 173.64 13.30 173.46 13.29ZM199.47 3.92L199.12 3.92L193.54 3.92L192.35 3.92L192.35 4.19C192.35 4.34 192.44 4.42 192.63 4.44L192.77 4.44C192.84 4.44 192.93 4.45 193.07 4.45C193.21 4.45 193.37 4.47 193.54 4.47L193.54 13.26C193.37 13.26 193.21 13.27 193.07 13.27C192.93 13.27 192.84 13.29 192.77 13.29L192.63 13.29C192.44 13.30 192.35 13.38 192.35 13.54L192.35 13.82L193.54 13.82L194.25 13.82L195.43 13.82L195.43 13.54C195.43 13.38 195.34 13.30 195.16 13.29L195.02 13.29C194.95 13.29 194.85 13.27 194.71 13.27C194.57 13.27 194.42 13.26 194.25 13.26L194.25 9.27L197.95 9.27L197.95 8.67L194.25 8.67L194.25 4.51L198.86 4.51C198.88 5.18 198.91 5.56 198.91 5.63C198.93 5.85 199.02 5.96 199.22 5.96L199.56 5.96L199.56 3.92ZM212.79 13.29L212.69 13.29L212.46 13.29C212.37 13.29 212.25 13.27 212.14 13.27L212.14 9.28C212.14 8.89 212.10 8.55 212.00 8.23C211.90 7.91 211.76 7.64 211.58 7.42C211.40 7.20 211.16 7.03 210.88 6.92C210.60 6.79 210.28 6.73 209.90 6.73C209.40 6.73 208.95 6.83 208.54 7.01C208.14 7.20 207.76 7.48 207.40 7.84L207.51 8.05C207.55 8.13 207.62 8.18 207.72 8.18C207.79 8.18 207.89 8.12 207.98 8.02C208.08 7.92 208.22 7.84 208.39 7.73C208.56 7.62 208.74 7.52 208.98 7.42C209.22 7.32 209.50 7.28 209.83 7.28C210.38 7.28 210.80 7.45 211.08 7.80C211.36 8.15 211.48 8.64 211.48 9.28L211.48 10.01C210.70 10.02 210.03 10.09 209.47 10.21C208.91 10.32 208.45 10.47 208.08 10.65C207.72 10.84 207.47 11.06 207.30 11.31C207.13 11.56 207.05 11.83 207.05 12.12C207.05 12.45 207.10 12.73 207.20 12.95C207.31 13.17 207.45 13.36 207.62 13.50C207.79 13.64 208.00 13.75 208.22 13.82C208.45 13.89 208.67 13.93 208.91 13.93C209.19 13.93 209.45 13.90 209.69 13.85C209.93 13.79 210.14 13.71 210.35 13.61C210.56 13.51 210.76 13.38 210.95 13.23C211.13 13.08 211.32 12.91 211.51 12.73L211.61 13.62C211.64 13.75 211.74 13.82 211.88 13.82L211.89 13.82L212.14 13.82L213.07 13.82L213.07 13.54C213.07 13.38 212.97 13.30 212.79 13.29ZM211.48 12.26C211.32 12.43 211.16 12.60 210.99 12.74C210.83 12.88 210.64 13.01 210.45 13.12C210.25 13.23 210.04 13.30 209.82 13.36C209.59 13.41 209.34 13.44 209.08 13.44C208.89 13.44 208.71 13.43 208.54 13.37C208.38 13.31 208.24 13.24 208.11 13.13C207.98 13.02 207.87 12.88 207.80 12.71C207.72 12.54 207.69 12.35 207.69 12.11C207.69 11.86 207.76 11.63 207.91 11.44C208.07 11.24 208.29 11.09 208.60 10.95C208.91 10.81 209.30 10.70 209.78 10.61C210.25 10.53 210.83 10.47 211.48 10.46ZM225.92 11.06C225.81 10.86 225.67 10.71 225.48 10.57C225.30 10.43 225.09 10.32 224.87 10.23C224.64 10.15 224.39 10.05 224.15 9.98C223.92 9.91 223.68 9.83 223.44 9.76C223.22 9.69 223.01 9.59 222.82 9.49C222.64 9.39 222.50 9.27 222.39 9.13C222.28 8.99 222.22 8.81 222.22 8.58C222.22 8.40 222.25 8.23 222.33 8.08C222.42 7.92 222.53 7.77 222.68 7.64C222.82 7.52 223.01 7.43 223.22 7.36C223.43 7.29 223.65 7.25 223.90 7.25C224.27 7.25 224.63 7.31 225.01 7.43C225.02 7.60 225.04 7.77 225.05 7.92C225.06 8.08 225.06 8.19 225.08 8.27C225.09 8.36 225.09 8.43 225.09 8.44C225.11 8.67 225.20 8.78 225.40 8.78L225.74 8.78L225.74 7.11C225.01 6.86 224.39 6.75 223.89 6.75C223.54 6.75 223.22 6.80 222.94 6.90C222.66 7.00 222.40 7.14 222.21 7.31C222.01 7.48 221.86 7.69 221.75 7.91C221.63 8.13 221.59 8.37 221.59 8.62C221.59 8.92 221.65 9.16 221.76 9.35C221.87 9.55 222.01 9.70 222.19 9.84C222.38 9.98 222.57 10.09 222.81 10.18C223.03 10.26 223.27 10.35 223.52 10.42C223.76 10.49 224 10.57 224.24 10.64C224.46 10.71 224.67 10.81 224.85 10.92C225.04 11.03 225.19 11.16 225.30 11.31C225.41 11.47 225.47 11.65 225.47 11.89C225.47 12.10 225.43 12.29 225.36 12.49C225.27 12.68 225.16 12.84 225.01 12.98C224.85 13.12 224.67 13.23 224.45 13.31C224.22 13.40 223.97 13.44 223.68 13.44C223.15 13.44 222.70 13.37 222.32 13.22C222.31 13.03 222.29 12.87 222.28 12.71C222.26 12.56 222.26 12.43 222.25 12.35C222.24 12.26 222.24 12.19 222.24 12.18C222.22 11.96 222.12 11.84 221.93 11.84L221.59 11.84L221.59 13.54C222.26 13.79 222.95 13.93 223.65 13.93C224.04 13.93 224.38 13.87 224.69 13.76C224.99 13.65 225.25 13.50 225.46 13.30C225.67 13.10 225.82 12.89 225.93 12.63C226.04 12.36 226.10 12.08 226.10 11.77C226.10 11.49 226.03 11.26 225.92 11.06ZM236.56 13.93C236.85 13.93 237.13 13.86 237.41 13.75C237.68 13.64 237.90 13.48 238.08 13.29L237.90 12.98C237.86 12.94 237.83 12.92 237.79 12.92C237.76 12.92 237.71 12.94 237.65 12.99C237.59 13.05 237.52 13.09 237.44 13.15C237.36 13.20 237.24 13.26 237.12 13.31C236.99 13.37 236.87 13.38 236.70 13.38C236.56 13.38 236.42 13.36 236.31 13.31C236.19 13.27 236.10 13.20 236.01 13.12C235.93 13.03 235.86 12.92 235.80 12.78C235.75 12.64 235.73 12.49 235.73 12.29L235.73 7.57L237.93 7.57L237.93 7.07L235.73 7.07L235.73 4.41L235.41 4.41C235.35 4.41 235.33 4.44 235.30 4.47C235.27 4.49 235.24 4.54 235.24 4.58L235.07 7.07L233.88 7.15L233.88 7.41C233.88 7.46 233.90 7.49 233.93 7.52C233.95 7.55 234.01 7.57 234.07 7.57L235.06 7.57L235.06 12.33C235.06 12.88 235.19 13.27 235.45 13.54C235.72 13.80 236.08 13.93 236.56 13.93Z"></path></g></svg>