<svg data-v-423bf9ae="" xmlns="http://www.w3.org/2000/svg" viewBox="0 0 291.86437442288246 60" class="font"><!----><!----><!----><g data-v-423bf9ae="" id="0ca33080-e480-41f9-9a9b-cfb0dc98440b" fill="white" transform="matrix(5.352363487191075,0,0,5.352363487191075,-3.9072260556328047,-42.71186120671017)"><path d="M8.75 8.85Q8.96 9.28 8.96 9.93L8.96 9.93Q8.96 10.65 8.48 11.07Q7.99 11.49 7.14 11.49L7.14 11.49Q6.64 11.49 5.95 11.40L5.95 11.40Q5.74 12.57 5.73 12.64L5.73 12.64Q5.40 14.42 5.24 15.49Q5.07 16.56 5.07 16.97L5.07 16.97Q5.07 18.10 5.46 18.66L5.46 18.66Q4.72 19.19 3.98 19.19L3.98 19.19Q3.21 19.19 2.88 18.77Q2.55 18.35 2.55 17.44L2.55 17.44Q2.55 16.77 2.76 15.36Q2.97 13.94 3.47 11.00L3.47 11.00L3.11 10.99L0.92 11.47Q0.73 11.00 0.73 10.39L0.73 10.39Q0.73 9.62 1.21 9.22Q1.69 8.82 2.55 8.82L2.55 8.82Q3.01 8.82 3.45 8.88Q3.89 8.95 4.59 9.07L4.59 9.07Q5.08 9.16 5.61 9.23Q6.13 9.31 6.58 9.32L6.58 9.32L8.75 8.85ZM10.93 19.18Q10.22 19.18 9.89 18.80Q9.56 18.42 9.56 17.67L9.56 17.67Q9.56 17.14 9.88 15.43Q10.19 13.72 10.58 12.14L10.58 12.14L9.88 11.19Q10.86 10.44 11.66 10.44L11.66 10.44Q12.17 10.44 12.41 10.70Q12.66 10.95 12.66 11.40L12.66 11.40Q12.66 11.84 12.53 12.31Q12.40 12.77 12.17 13.37L12.17 13.37L12.31 13.44Q12.89 11.91 13.50 11.17Q14.11 10.43 14.98 10.43L14.98 10.43Q15.55 10.43 15.88 10.74Q16.20 11.05 16.20 11.59L16.20 11.59Q16.20 12.22 15.77 12.62Q15.34 13.02 14.59 13.02L14.59 13.02Q13.90 13.02 13.30 13.64Q12.70 14.27 12.33 15.32Q11.97 16.37 11.97 17.54L11.97 17.54Q11.97 18.26 12.22 18.61L12.22 18.61Q11.61 19.18 10.93 19.18L10.93 19.18ZM24.28 12.45Q24.28 13.41 23.62 14.11Q22.96 14.81 21.71 15.19Q20.47 15.57 18.75 15.58L18.75 15.58L18.75 15.76Q18.75 16.79 19.11 17.36Q19.47 17.93 20.12 17.93L20.12 17.93Q20.90 17.93 21.41 17.39Q21.91 16.84 21.95 15.95L21.95 15.95Q22.68 15.95 23.07 16.22Q23.45 16.49 23.45 17.01L23.45 17.01Q23.45 17.60 22.97 18.10Q22.50 18.59 21.68 18.89Q20.86 19.18 19.87 19.18L19.87 19.18Q18.23 19.18 17.30 18.26Q16.38 17.33 16.38 15.71L16.38 15.71Q16.38 14.21 17.07 13.01Q17.77 11.80 18.98 11.12Q20.20 10.43 21.71 10.43L21.71 10.43Q22.93 10.43 23.60 10.96Q24.28 11.49 24.28 12.45L24.28 12.45ZM21.34 11.77Q20.50 11.77 19.80 12.59Q19.11 13.40 18.86 14.63L18.86 14.63Q20.45 14.56 21.33 14.04Q22.20 13.51 22.20 12.61L22.20 12.61Q22.20 12.24 21.97 12.01Q21.73 11.77 21.34 11.77L21.34 11.77ZM27.19 19.18Q26.47 19.18 26.14 18.82Q25.82 18.45 25.82 17.74L25.82 17.74Q25.82 17.16 26.14 15.42Q26.46 13.68 26.82 12.14L26.82 12.14L26.14 11.19Q26.66 10.85 27.24 10.65Q27.82 10.44 28.35 10.44L28.35 10.44Q28.87 10.44 29.11 10.68Q29.34 10.92 29.34 11.40L29.34 11.40Q29.34 11.76 29.25 12.17Q29.15 12.59 28.98 12.92L28.98 12.92L29.12 12.99Q30.58 10.43 32.87 10.43L32.87 10.43Q33.75 10.43 34.18 10.86Q34.61 11.30 34.61 12.19L34.61 12.19Q34.61 12.70 34.51 13.23Q34.41 13.76 34.19 14.69L34.19 14.69Q33.96 15.60 33.84 16.25Q33.71 16.91 33.71 17.54L33.71 17.54Q33.71 18.26 33.96 18.61L33.96 18.61Q33.35 19.18 32.68 19.18L32.68 19.18Q31.96 19.18 31.64 18.82Q31.32 18.45 31.32 17.74L31.32 17.74Q31.32 17.18 31.44 16.58Q31.56 15.97 31.79 15.02L31.79 15.02Q31.99 14.25 32.08 13.82Q32.17 13.38 32.17 13.03L32.17 13.03Q32.17 12.24 31.54 12.24L31.54 12.24Q30.84 12.24 30.06 12.98Q29.27 13.72 28.75 14.95Q28.22 16.17 28.22 17.54L28.22 17.54Q28.22 18.26 28.48 18.61L28.48 18.61Q27.83 19.18 27.19 19.18L27.19 19.18ZM45.40 8.89Q45.40 9.18 45.30 9.74Q45.19 10.29 45.11 10.69Q45.02 11.09 44.98 11.26L44.98 11.26Q44.58 13.02 44.33 14.48Q44.09 15.93 44.09 17.35L44.09 17.35Q44.09 17.84 44.18 18.12Q44.27 18.40 44.46 18.61L44.46 18.61Q44.16 18.89 43.76 19.03Q43.37 19.18 42.99 19.18L42.99 19.18Q42.32 19.18 42.01 18.77Q41.69 18.37 41.69 17.51L41.69 17.51L41.71 17.12L41.57 17.07Q41.12 18.06 40.37 18.62Q39.62 19.18 38.72 19.18L38.72 19.18Q37.95 19.18 37.37 18.77Q36.78 18.37 36.46 17.62Q36.13 16.87 36.13 15.89L36.13 15.89Q36.13 14.42 36.84 13.26Q37.55 12.10 38.80 11.44Q40.05 10.78 41.64 10.78L41.64 10.78Q42.22 10.78 42.69 10.86L42.69 10.86L42.88 9.80L42.17 8.83Q42.69 8.46 43.28 8.22Q43.88 7.98 44.39 7.98L44.39 7.98Q44.94 7.98 45.17 8.19Q45.40 8.40 45.40 8.89L45.40 8.89ZM41.96 15.25Q42.13 14.08 42.52 11.87L42.52 11.87Q41.36 11.96 40.44 12.46Q39.52 12.96 39.01 13.77Q38.50 14.57 38.50 15.54L38.50 15.54Q38.50 16.32 38.83 16.76Q39.16 17.19 39.75 17.19L39.75 17.19Q40.39 17.19 40.99 16.66Q41.59 16.13 41.96 15.23L41.96 15.23L41.96 15.25ZM50.36 19.18Q49.25 19.18 48.43 18.73Q47.60 18.27 47.15 17.44Q46.70 16.60 46.70 15.50L46.70 15.50Q46.70 14.03 47.36 12.87Q48.02 11.72 49.20 11.07Q50.37 10.43 51.86 10.43L51.86 10.43Q52.39 10.43 52.89 10.54L52.89 10.54Q53.05 10.98 53.03 11.51L53.03 11.51Q51.81 11.51 50.92 12.04Q50.02 12.57 49.55 13.49Q49.07 14.41 49.07 15.55L49.07 15.55Q49.07 16.74 49.50 17.34Q49.92 17.93 50.69 17.93L50.69 17.93Q51.67 17.93 52.33 17.14Q52.99 16.35 53.14 14.99L53.14 14.99Q52.07 14.36 52.07 13.19L52.07 13.19Q52.07 12.46 52.51 11.96Q52.95 11.47 53.59 11.47L53.59 11.47Q54.35 11.47 54.80 12.08Q55.26 12.70 55.26 13.73L55.26 13.73Q55.26 15.23 54.61 16.49Q53.96 17.74 52.83 18.46Q51.70 19.18 50.36 19.18L50.36 19.18Z"></path></g><!----><!----></svg>